<svg width="280" height="280" viewBox="0 0 280 280" fill="none" xmlns="http://www.w3.org/2000/svg">
<path d="M188.998 90.2523C188.998 98.6989 183.595 109.381 174.66 117.993C165.751 126.579 153.488 132.951 139.998 132.951C126.509 132.951 114.246 126.579 105.337 117.993C96.4019 109.381 90.9983 98.6989 90.9983 90.2523C90.9983 81.8967 96.3051 74.1905 105.181 68.524C114.046 62.8649 126.353 59.3319 139.998 59.3319C153.644 59.3319 165.951 62.8649 174.816 68.524C183.692 74.1905 188.998 81.8967 188.998 90.2523Z" fill="white" stroke="black" stroke-width="2"/>
<path d="M137.179 42.4327V30.4065H142.163V42.4327V43.4327H143.163H155.189V48.4159H143.163H142.163V49.4159V61.4423H137.179V49.4159V48.4159H136.179H124.153V43.4327H136.179H137.179V42.4327Z" fill="white" stroke="black" stroke-width="2"/>
<rect x="98.4067" y="118.634" width="82.5286" height="3.36703" rx="1.68352" fill="white" stroke="black" stroke-width="2"/>
<path d="M102.065 203.22V199.197C111.578 188.241 117.337 173.934 117.337 158.286C117.337 145.508 113.497 133.625 106.91 123.73H172.433C165.845 133.625 162.005 145.508 162.005 158.286C162.005 173.934 167.764 188.241 177.277 199.197V203.22H102.065Z" fill="white" stroke="black" stroke-width="2"/>
<rect x="98.4067" y="123.73" width="82.5286" height="9.22081" rx="4.61041" fill="white" stroke="black" stroke-width="2"/>
<rect x="90.9983" y="205.22" width="97.3452" height="12.9595" fill="white" stroke="black" stroke-width="2"/>
<rect x="77.967" y="220.18" width="123.408" height="13.707" fill="white" stroke="black" stroke-width="2"/>
<rect x="69.6599" y="235.886" width="140.022" height="13.707" fill="white" stroke="black" stroke-width="2"/>
<circle cx="139.96" cy="45.7923" r="6.73348" fill="white" stroke="black" stroke-width="2"/>
</svg>
