<svg width="280" height="280" viewBox="0 0 280 280" fill="none" xmlns="http://www.w3.org/2000/svg">
<path d="M189.327 89.7523C189.327 98.1989 183.924 108.881 174.989 117.493C166.08 126.079 153.817 132.451 140.327 132.451C126.838 132.451 114.575 126.079 105.666 117.493C96.7307 108.881 91.3271 98.1989 91.3271 89.7523C91.3271 81.3967 96.6339 73.6905 105.51 68.024C114.374 62.3649 126.681 58.8319 140.327 58.8319C153.973 58.8319 166.28 62.3649 175.144 68.024C184.02 73.6905 189.327 81.3967 189.327 89.7523Z" fill="#333333" stroke="black" stroke-width="2"/>
<path d="M136.508 42.9327H137.508V41.9327V29.9065H142.491V41.9327V42.9327H143.491H155.518V47.9159H143.491H142.491V48.9159V60.9423H137.508V48.9159V47.9159H136.508H124.482V42.9327H136.508Z" fill="#333333" stroke="black" stroke-width="2"/>
<rect x="98.7356" y="118.134" width="82.5286" height="3.36703" rx="1.68352" fill="#333333" stroke="black" stroke-width="2"/>
<path d="M102.394 202.72V198.697C111.907 187.741 117.666 173.434 117.666 157.786C117.666 145.008 113.826 133.125 107.238 123.23H172.761C166.174 133.125 162.334 145.008 162.334 157.786C162.334 173.434 168.093 187.741 177.606 198.697V202.72H102.394Z" fill="#333333" stroke="black" stroke-width="2"/>
<rect x="98.7356" y="123.23" width="82.5286" height="9.22081" rx="4.61041" fill="#333333" stroke="black" stroke-width="2"/>
<rect x="91.3271" y="204.72" width="97.3452" height="12.9595" fill="#333333" stroke="black" stroke-width="2"/>
<rect x="78.2959" y="219.68" width="123.408" height="13.707" fill="#333333" stroke="black" stroke-width="2"/>
<rect x="69.9888" y="235.386" width="140.022" height="13.707" fill="#333333" stroke="black" stroke-width="2"/>
<circle cx="140.289" cy="45.2923" r="6.73348" fill="#333333" stroke="black" stroke-width="2"/>
</svg>
